<?xml version="1.0" encoding="UTF-8"?>
<!DOCTYPE svg  PUBLIC '-//W3C//DTD SVG 1.1//EN'  'http://www.w3.org/Graphics/SVG/1.1/DTD/svg11.dtd' [
	<!ENTITY ns_flows "http://ns.adobe.com/Flows/1.0/">
	<!ENTITY ns_svg "http://www.w3.org/2000/svg">
	<!ENTITY ns_xlink "http://www.w3.org/1999/xlink">
]>
<svg width="346" height="60" enable-background="new -0.704 -0.674 346 60" version="1.1" viewBox="-.704 -.674 346 60" xml:space="preserve" xmlns="http://www.w3.org/2000/svg">

<path d="m23.664 41.127-0.023 1.262c-2.422 1.102-4.818 1.914-7.186 2.457-2.369 0.543-4.709 0.809-7.021 0.809-1.281 0-2.455-0.125-3.518-0.375s-2.016-0.618-2.859-1.102c-1.002-0.578-1.756-1.32-2.264-2.227s-0.762-1.965-0.762-3.172c0-2.117 1.066-4.008 3.197-5.676s5.313-3.105 9.545-4.324c-0.344-1-0.926-1.766-1.748-2.281-0.82-0.52-1.863-0.781-3.131-0.781-1.359 0-2.594 0.281-3.705 0.836-1.109 0.555-2.096 1.367-2.955 2.445l-1.234-1.203c1.314-2.008 2.939-3.523 4.879-4.547 1.938-1.016 4.197-1.531 6.777-1.531 2.094 0 3.936 0.586 5.523 1.746 1.586 1.16 2.928 2.91 4.021 5.23 0.859 1.828 1.498 3.773 1.912 5.844s0.599 4.266 0.552 6.59zm-9.219-1.723c0-1.414-0.066-2.82-0.201-4.211-0.135-1.383-0.344-2.758-0.627-4.117-1.469 0.422-2.793 0.871-3.973 1.348-1.18 0.473-2.207 0.98-3.082 1.508l2.398 9.66c1.25 0 2.328-0.07 3.234-0.211s1.633-0.363 2.18-0.676c0.031-0.559 0.051-1.113 0.059-1.66s0.012-1.094 0.012-1.641zm5.586-6.422c0-0.563-0.137-0.984-0.41-1.266s-0.691-0.422-1.254-0.422-0.988 0.141-1.277 0.422-0.434 0.703-0.434 1.266 0.145 0.984 0.434 1.258 0.715 0.406 1.277 0.406 0.98-0.133 1.254-0.406 0.41-0.695 0.41-1.258zm0.961 6.313c0-0.594-0.207-1.102-0.621-1.523s-0.926-0.633-1.535-0.633c-0.594 0-1.105 0.203-1.535 0.609s-0.645 0.922-0.645 1.547c0 0.609 0.215 1.117 0.645 1.523s0.941 0.609 1.535 0.609c0.609 0 1.121-0.203 1.535-0.617s0.621-0.921 0.621-1.515z" fill="#ddd"/>
<path d="m52.656 32.85c0 1.469-0.215 2.82-0.645 4.055s-1.066 2.359-1.91 3.375c-0.904 1.094-1.939 1.914-3.104 2.461-1.162 0.547-2.463 0.82-3.9 0.82-1.188 0-2.266-0.141-3.232-0.43-0.969-0.289-1.82-0.734-2.553-1.328-0.781-0.625-1.367-1.391-1.758-2.297s-0.586-1.953-0.586-3.141c0-2.109 0.568-3.836 1.707-5.172s2.76-2.008 4.865-2.008c1.311 0 2.4 0.422 3.273 1.258s1.311 1.922 1.311 3.25c0 0.5-0.063 0.953-0.188 1.359s-0.305 0.789-0.537 1.148c-0.264 0.391-0.588 0.68-0.971 0.867-0.381 0.188-0.813 0.281-1.297 0.281-0.328 0-0.652-0.047-0.973-0.148s-0.629-0.25-0.926-0.438c0.609-0.047 1.129-0.297 1.559-0.75s0.645-0.984 0.645-1.594c0-0.719-0.184-1.266-0.549-1.625-0.367-0.363-0.916-0.547-1.646-0.547-0.484 0-0.916 0.117-1.299 0.352-0.381 0.238-0.713 0.59-0.992 1.059-0.219 0.379-0.389 0.793-0.514 1.254-0.125 0.465-0.188 0.945-0.188 1.445 0 1.316 0.441 2.406 1.324 3.277 0.881 0.871 1.979 1.301 3.289 1.301 0.859 0 1.633-0.188 2.318-0.563 0.688-0.375 1.279-0.938 1.779-1.688 0.453-0.672 0.797-1.398 1.031-2.18s0.352-1.625 0.352-2.531c0-2.125-0.637-3.836-1.908-5.141s-2.979-1.961-5.115-1.961c-1.297 0-2.432 0.266-3.406 0.797-0.977 0.531-1.809 1.32-2.494 2.367-0.578 0.871-1.01 1.883-1.299 3.027s-0.434 2.398-0.434 3.754c0 0.109 0.027 0.98 0.08 2.609 0.055 1.633 0.119 4.031 0.197 7.195l-2.527 0.375-0.047 1.43 2.619-0.117v1.75l-2.689 0.285 0.117 1.723 2.572-0.352 0.068 1.563-2.758 0.469-0.047 1.68 2.805-0.492 0.047 1.859-8.094 2.078 4.035-37.008 3.59 0.539 0.422 5.688c0.922-1.656 2.232-2.961 3.936-3.914 1.701-0.953 3.514-1.43 5.436-1.43 1.438 0 2.725 0.25 3.865 0.742s2.123 1.219 2.951 2.188c0.797 0.938 1.395 2 1.793 3.188s0.6 2.518 0.6 3.987z" fill="#ddd"/>
<path d="m81.945 41.732c-0.391 0.395-0.742 0.742-1.055 1.051s-0.586 0.551-0.82 0.738l1.758 2.641-1.641 0.961-1.783-2.211c-0.625 0.379-1.289 0.695-1.992 0.953-0.703 0.262-1.455 0.438-2.252 0.531l-0.047 2.766-2.109-0.141 0.188-2.555c-0.719 0-1.484-0.07-2.297-0.219s-1.664-0.375-2.555-0.672l-1.314 2.813-2.109-1.148 1.43-2.621c-0.766-0.422-1.467-0.91-2.1-1.465s-1.191-1.18-1.676-1.883l-2.508 1.59-1.055-1.66 2.742-1.43c-0.359-0.75-0.641-1.52-0.844-2.309-0.203-0.785-0.336-1.598-0.398-2.426l-2.508 0.634-0.727-2.063 3.234-0.723c0.078-0.875 0.211-1.66 0.398-2.363s0.43-1.328 0.727-1.875l-2.273-1.359 1.078-1.781 2.227 1.547c0.391-0.484 0.816-0.922 1.277-1.313s0.949-0.734 1.465-1.031l-1.922-2.789 2.109-1.031 1.547 2.977c0.5-0.156 0.953-0.281 1.359-0.375s0.766-0.164 1.078-0.211l0.633-3.07 1.664 0.516-0.422 2.438c0.625 0 1.219 0.078 1.781 0.234s1.102 0.391 1.617 0.707l2.32-2.301 1.313 1.102-2.203 2.398c0.344 0.328 0.664 0.719 0.961 1.184s0.563 0.973 0.797 1.535l2.742-0.914 0.469 1.738-2.648 0.918c0.125 0.344 0.23 0.719 0.316 1.125s0.168 0.844 0.246 1.313l-10.906 1.891v0.258c0 1.141 0.121 2.211 0.363 3.219 0.242 1 0.613 1.957 1.113 2.859 0.594 1.078 1.307 1.883 2.135 2.422s1.76 0.805 2.791 0.805c1.063 0 2.18-0.281 3.354-0.844 1.172-0.566 2.416-1.43 3.729-2.594l1.203 1.513zm-9.593-11.468c-0.063-0.691-0.316-1.211-0.762-1.555-0.445-0.348-1.082-0.523-1.91-0.523-1.016 0-1.961 0.309-2.836 0.922-0.875 0.617-1.469 1.398-1.781 2.359l7.289-1.203z" fill="#ddd"/>
<path d="m101.41 23.592-0.352 2.438-4.689 0.352-0.352 2.828 5.041 0.141-0.961 3.32-4.48-0.281-1.758 12.922-3.441 0.625-0.445-13.969-4.219-0.305 0.703-2.641 3.469 0.07-0.117-2.219-4.477 0.352-1.008-3.633h5.367l-0.234-8.154 8.625-1-1.268 9.154h4.596zm-6.961 2.047c0-0.516-0.121-0.898-0.363-1.148s-0.613-0.375-1.113-0.375c-0.516 0-0.898 0.125-1.148 0.375s-0.375 0.633-0.375 1.148c0 0.5 0.125 0.875 0.375 1.117s0.633 0.359 1.148 0.359c0.5 0 0.871-0.117 1.113-0.359s0.363-0.617 0.363-1.117zm0.852-5.782c0-0.641-0.16-1.117-0.48-1.438s-0.801-0.484-1.441-0.484-1.121 0.164-1.441 0.484-0.48 0.797-0.48 1.438c0 0.656 0.16 1.148 0.48 1.469s0.801 0.477 1.441 0.477 1.121-0.156 1.441-0.477 0.48-0.812 0.48-1.469z" fill="#ddd"/>
<path d="m114.52 46.217-9.844-1.266 3.656-22.828h4.406l1.782 24.094zm0.813-29.733-0.586 1.428-2.039-1.055c-0.221 0.281-0.463 0.508-0.73 0.68-0.266 0.172-0.563 0.297-0.891 0.375l0.469 1.914-1.598 0.234-0.4-2c-0.25-0.047-0.498-0.133-0.74-0.266s-0.473-0.289-0.691-0.461l-1.551 1.43-1.078-1.242 1.805-1.311c-0.156-0.297-0.246-0.609-0.27-0.938s4e-3 -0.68 0.082-1.055l-2.086-1.313 0.773-1.266 1.924 1.313c0.188-0.234 0.402-0.434 0.646-0.598 0.242-0.164 0.52-0.293 0.834-0.387l-0.4-2.766h1.504l0.094 2.578c0.346 0.047 0.658 0.125 0.941 0.234 0.281 0.109 0.547 0.25 0.799 0.422l1.643-1.313 1.078 1.078-1.875 1.262c0.125 0.172 0.211 0.438 0.258 0.797s0.063 0.811 0.047 1.355l2.038 0.871zm-3.586 23.998c0-0.594-0.211-1.102-0.633-1.523s-0.938-0.633-1.547-0.633c-0.578 0-1.078 0.211-1.5 0.633s-0.633 0.93-0.633 1.523 0.211 1.102 0.633 1.516 0.922 0.617 1.5 0.617c0.609 0 1.125-0.203 1.547-0.617s0.633-0.922 0.633-1.516zm0.016-6.343c0-0.547-0.137-0.961-0.41-1.242s-0.691-0.422-1.254-0.422c-0.578 0-1.008 0.141-1.289 0.422s-0.422 0.695-0.422 1.242c0 0.563 0.141 0.984 0.422 1.266s0.711 0.422 1.289 0.422c0.563 0 0.98-0.141 1.254-0.422s0.41-0.704 0.41-1.266z" fill="#ddd"/>
<path d="m135.75 23.592-0.352 2.438-4.689 0.352-0.352 2.828 5.041 0.141-0.961 3.32-4.48-0.281-1.758 12.922-3.441 0.625-0.445-13.969-4.219-0.305 0.703-2.641 3.469 0.07-0.117-2.219-4.477 0.352-1.008-3.633h5.367l-0.234-8.154 8.625-1-1.268 9.154h4.596zm-6.961 2.047c0-0.516-0.121-0.898-0.363-1.148s-0.613-0.375-1.113-0.375c-0.516 0-0.898 0.125-1.148 0.375s-0.375 0.633-0.375 1.148c0 0.5 0.125 0.875 0.375 1.117s0.633 0.359 1.148 0.359c0.5 0 0.871-0.117 1.113-0.359s0.363-0.617 0.363-1.117zm0.852-5.782c0-0.641-0.16-1.117-0.48-1.438s-0.801-0.484-1.441-0.484-1.121 0.164-1.441 0.484-0.48 0.797-0.48 1.438c0 0.656 0.16 1.148 0.48 1.469s0.801 0.477 1.441 0.477 1.121-0.156 1.441-0.477 0.48-0.812 0.48-1.469z" fill="#ddd"/>
<path d="m164.45 42.639-9.016 1.609c0.125-4.777 0.211-8.039 0.258-9.781 0.047-1.738 0.07-2.828 0.07-3.266 0-1.453-0.234-2.539-0.703-3.266-0.467-0.727-1.176-1.094-2.129-1.094-0.889 0-1.82 0.406-2.795 1.211-0.975 0.801-1.992 2.008-3.053 3.617l-0.68 12.125-4.25 0.578-2.516-21.5 8.031-1.688-0.352 6.75c1.154-1.547 2.379-2.711 3.674-3.5s2.654-1.188 4.072-1.188c1.873 0 3.406 0.703 4.6 2.109s2.072 3.523 2.635 6.344l2.154 10.94zm-3.859-9.188c0-0.484-0.125-0.852-0.375-1.109s-0.625-0.391-1.125-0.391-0.879 0.133-1.137 0.391-0.387 0.625-0.387 1.109c0 0.516 0.129 0.906 0.387 1.164s0.637 0.383 1.137 0.383 0.875-0.125 1.125-0.383 0.375-0.648 0.375-1.164zm0.867 5.719c0-0.531-0.195-0.977-0.586-1.344s-0.844-0.555-1.359-0.555c-0.656 0-1.145 0.164-1.465 0.484s-0.48 0.789-0.48 1.414c0 0.641 0.16 1.125 0.48 1.445s0.809 0.477 1.465 0.477c0.516 0 0.969-0.18 1.359-0.547s0.586-0.827 0.586-1.374z" fill="#ddd"/>
<path d="m177.85 46.217-9.844-1.266 3.656-22.828h4.406l1.782 24.094zm0.812-29.733-0.586 1.428-2.039-1.055c-0.221 0.281-0.463 0.508-0.73 0.68-0.266 0.172-0.563 0.297-0.891 0.375l0.469 1.914-1.598 0.234-0.4-2c-0.25-0.047-0.498-0.133-0.74-0.266s-0.473-0.289-0.691-0.461l-1.551 1.43-1.078-1.242 1.805-1.311c-0.156-0.297-0.246-0.609-0.27-0.938s4e-3 -0.68 0.082-1.055l-2.086-1.313 0.773-1.266 1.924 1.313c0.188-0.234 0.402-0.434 0.646-0.598 0.242-0.164 0.52-0.293 0.834-0.387l-0.4-2.766h1.504l0.094 2.578c0.346 0.047 0.658 0.125 0.941 0.234 0.281 0.109 0.547 0.25 0.799 0.422l1.643-1.313 1.078 1.078-1.875 1.262c0.125 0.172 0.211 0.438 0.258 0.797s0.063 0.811 0.047 1.355l2.038 0.871zm-3.586 23.998c0-0.594-0.211-1.102-0.633-1.523s-0.938-0.633-1.547-0.633c-0.578 0-1.078 0.211-1.5 0.633s-0.633 0.93-0.633 1.523 0.211 1.102 0.633 1.516 0.922 0.617 1.5 0.617c0.609 0 1.125-0.203 1.547-0.617s0.633-0.922 0.633-1.516zm0.016-6.343c0-0.547-0.137-0.961-0.41-1.242s-0.691-0.422-1.254-0.422c-0.578 0-1.008 0.141-1.289 0.422s-0.422 0.695-0.422 1.242c0 0.563 0.141 0.984 0.422 1.266s0.711 0.422 1.289 0.422c0.563 0 0.98-0.141 1.254-0.422s0.41-0.704 0.41-1.266z" fill="#ddd"/>
<path d="m193.28 40.139c0 1.188-0.414 2.211-1.242 3.063s-1.836 1.273-3.023 1.273c-1.172 0-2.18-0.422-3.023-1.273s-1.266-1.875-1.266-3.063 0.418-2.203 1.254-3.055 1.848-1.281 3.035-1.281 2.195 0.43 3.023 1.281 1.242 1.867 1.242 3.055zm-2.758-0.594c0-0.547-0.191-1.039-0.574-1.484s-0.84-0.672-1.371-0.672c-0.516 0-0.961 0.227-1.336 0.672s-0.563 0.938-0.563 1.484 0.184 1.047 0.551 1.492 0.816 0.664 1.348 0.664c0.547 0 1.008-0.219 1.383-0.664s0.562-0.945 0.562-1.492z" fill="#ddd"/>
<path d="m224.15 42.639-9.016 1.609c0.125-4.777 0.211-8.039 0.258-9.781 0.047-1.738 0.07-2.828 0.07-3.266 0-1.453-0.234-2.539-0.703-3.266-0.467-0.727-1.176-1.094-2.129-1.094-0.889 0-1.82 0.406-2.795 1.211-0.975 0.801-1.992 2.008-3.053 3.617l-0.68 12.125-4.25 0.578-2.516-21.5 8.031-1.688-0.352 6.75c1.154-1.547 2.379-2.711 3.674-3.5s2.654-1.188 4.072-1.188c1.873 0 3.406 0.703 4.6 2.109s2.072 3.523 2.635 6.344l2.154 10.94zm-3.859-9.188c0-0.484-0.125-0.852-0.375-1.109s-0.625-0.391-1.125-0.391-0.879 0.133-1.137 0.391-0.387 0.625-0.387 1.109c0 0.516 0.129 0.906 0.387 1.164s0.637 0.383 1.137 0.383 0.875-0.125 1.125-0.383 0.375-0.648 0.375-1.164zm0.867 5.719c0-0.531-0.195-0.977-0.586-1.344s-0.844-0.555-1.359-0.555c-0.656 0-1.145 0.164-1.465 0.484s-0.48 0.789-0.48 1.414c0 0.641 0.16 1.125 0.48 1.445s0.809 0.477 1.465 0.477c0.516 0 0.969-0.18 1.359-0.547s0.586-0.827 0.586-1.374z" fill="#ddd"/>
<path d="m253.11 41.732c-0.391 0.395-0.742 0.742-1.055 1.051s-0.586 0.551-0.82 0.738l1.758 2.641-1.641 0.961-1.781-2.211c-0.625 0.379-1.289 0.695-1.992 0.953-0.703 0.262-1.457 0.438-2.254 0.531l-0.047 2.766-2.109-0.141 0.188-2.555c-0.719 0-1.484-0.07-2.297-0.219s-1.664-0.375-2.555-0.672l-1.316 2.813-2.109-1.148 1.43-2.621c-0.766-0.422-1.465-0.91-2.098-1.465s-1.191-1.18-1.676-1.883l-2.508 1.59-1.055-1.66 2.742-1.43c-0.359-0.75-0.641-1.52-0.844-2.309-0.203-0.785-0.336-1.598-0.398-2.426l-2.508 0.633-0.727-2.063 3.234-0.723c0.078-0.875 0.211-1.66 0.398-2.363s0.43-1.328 0.727-1.875l-2.273-1.359 1.078-1.781 2.227 1.547c0.391-0.484 0.816-0.922 1.277-1.313s0.949-0.734 1.465-1.031l-1.922-2.789 2.109-1.031 1.547 2.977c0.5-0.156 0.953-0.281 1.359-0.375s0.766-0.164 1.078-0.211l0.633-3.07 1.664 0.516-0.422 2.438c0.625 0 1.219 0.078 1.781 0.234s1.102 0.391 1.617 0.707l2.32-2.301 1.313 1.102-2.203 2.398c0.344 0.328 0.664 0.719 0.961 1.184s0.563 0.973 0.797 1.535l2.742-0.914 0.469 1.738-2.648 0.918c0.125 0.344 0.23 0.719 0.316 1.125s0.168 0.844 0.246 1.313l-10.906 1.891v0.258c0 1.141 0.121 2.211 0.363 3.219 0.242 1 0.613 1.957 1.113 2.859 0.594 1.078 1.305 1.883 2.133 2.422s1.762 0.805 2.793 0.805c1.063 0 2.18-0.281 3.355-0.844 1.172-0.566 2.414-1.43 3.727-2.594l1.204 1.514zm-9.593-11.468c-0.063-0.691-0.316-1.211-0.762-1.555-0.445-0.348-1.082-0.523-1.91-0.523-1.016 0-1.961 0.309-2.836 0.922-0.875 0.617-1.469 1.398-1.781 2.359l7.289-1.203z" fill="#ddd"/>
<path d="m283.44 32.389c0 1.891-0.328 3.586-0.984 5.086s-1.656 2.805-3 3.914c-1.262 1.047-2.684 1.836-4.262 2.359-1.574 0.523-3.332 0.781-5.27 0.781-2.031 0-3.867-0.398-5.516-1.195s-3.098-2-4.344-3.609c-1.141-1.457-1.988-3.086-2.543-4.883s-0.832-3.762-0.832-5.891c0-2.797 0.441-5.516 1.32-8.164 0.883-2.648 2.199-5.232 3.949-7.748 1.637-2.344 3.527-4.434 5.668-6.27 2.137-1.836 4.516-3.426 7.141-4.77l4.141 7.359c-2.512 1.031-4.797 2.264-6.859 3.695-2.059 1.43-3.898 3.061-5.523 4.889-1.871 2.109-3.277 4.313-4.211 6.602-0.938 2.293-1.406 4.664-1.406 7.117 0 1.238 0.188 2.398 0.563 3.484s0.93 2.094 1.664 3.016c0.793 1.016 1.688 1.773 2.68 2.273s2.094 0.75 3.313 0.75c2.57 0 4.617-0.813 6.148-2.438 1.523-1.633 2.289-3.75 2.289-6.367 0-0.938-0.121-1.805-0.363-2.594s-0.621-1.531-1.137-2.219c-0.543-0.719-1.184-1.262-1.918-1.625-0.73-0.359-1.559-0.539-2.48-0.539-1.324 0-2.414 0.391-3.266 1.164-0.848 0.77-1.273 1.805-1.273 3.102 0 0.918 0.195 1.605 0.586 2.055 0.391 0.453 0.973 0.68 1.754 0.68 0.512 0 0.949-0.203 1.309-0.609s0.539-0.883 0.539-1.43c0-0.219-0.027-0.414-0.082-0.594s-0.152-0.352-0.293-0.508c0.813 0.234 1.43 0.633 1.844 1.188 0.418 0.555 0.625 1.266 0.625 2.141 0 0.523-0.109 1-0.328 1.438s-0.551 0.836-0.988 1.18c-0.41 0.313-0.844 0.543-1.309 0.695-0.461 0.148-0.969 0.219-1.516 0.219-0.781 0-1.492-0.148-2.133-0.453s-1.211-0.773-1.711-1.398c-0.469-0.578-0.813-1.211-1.031-1.906s-0.328-1.453-0.328-2.266c0-1.297 0.227-2.469 0.68-3.516s1.125-1.984 2.016-2.813c0.863-0.797 1.844-1.391 2.945-1.781s2.297-0.586 3.578-0.586c1.516 0 2.891 0.273 4.117 0.824 1.227 0.547 2.316 1.371 3.273 2.465 0.922 1.063 1.613 2.234 2.074 3.508s0.69 2.672 0.69 4.188z" fill="#ddd"/>
<path d="m302.48 23.592-0.352 2.438-4.688 0.352-0.352 2.828 5.039 0.141-0.961 3.32-4.48-0.281-1.758 12.922-3.441 0.625-0.445-13.969-4.219-0.305 0.703-2.641 3.469 0.07-0.117-2.219-4.477 0.352-1.008-3.633h5.367l-0.234-8.154 8.625-1-1.266 9.154h4.595zm-6.961 2.047c0-0.516-0.121-0.898-0.363-1.148s-0.613-0.375-1.113-0.375c-0.516 0-0.898 0.125-1.148 0.375s-0.375 0.633-0.375 1.148c0 0.5 0.125 0.875 0.375 1.117s0.633 0.359 1.148 0.359c0.5 0 0.871-0.117 1.113-0.359s0.363-0.617 0.363-1.117zm0.852-5.782c0-0.641-0.16-1.117-0.48-1.438s-0.801-0.484-1.441-0.484-1.121 0.164-1.441 0.484-0.48 0.797-0.48 1.438c0 0.656 0.16 1.148 0.48 1.469s0.801 0.477 1.441 0.477 1.121-0.156 1.441-0.477 0.48-0.812 0.48-1.469z" fill="#ddd"/>
<path d="m329.12 41.127-0.023 1.262c-2.422 1.102-4.82 1.914-7.188 2.457s-4.707 0.809-7.02 0.809c-1.281 0-2.457-0.125-3.52-0.375s-2.016-0.617-2.859-1.102c-1-0.578-1.754-1.32-2.262-2.227s-0.762-1.965-0.762-3.172c0-2.117 1.066-4.008 3.195-5.676 2.133-1.668 5.313-3.105 9.547-4.324-0.344-1-0.926-1.766-1.75-2.281-0.82-0.52-1.859-0.781-3.129-0.781-1.359 0-2.594 0.281-3.707 0.836-1.109 0.555-2.094 1.367-2.953 2.445l-1.234-1.203c1.313-2.008 2.938-3.523 4.879-4.547 1.938-1.016 4.199-1.531 6.777-1.531 2.094 0 3.938 0.586 5.523 1.746s2.93 2.91 4.023 5.23c0.859 1.828 1.496 3.773 1.91 5.844s0.6 4.266 0.553 6.59zm-9.219-1.723c0-1.414-0.066-2.82-0.203-4.211-0.133-1.383-0.344-2.758-0.625-4.117-1.469 0.422-2.793 0.871-3.973 1.348-1.18 0.473-2.207 0.98-3.082 1.508l2.398 9.66c1.25 0 2.328-0.07 3.234-0.211s1.633-0.363 2.18-0.676c0.031-0.559 0.051-1.113 0.059-1.66s0.012-1.094 0.012-1.641zm5.586-6.422c0-0.563-0.137-0.984-0.41-1.266s-0.691-0.422-1.254-0.422-0.988 0.141-1.277 0.422-0.434 0.703-0.434 1.266 0.145 0.984 0.434 1.258 0.715 0.406 1.277 0.406 0.98-0.133 1.254-0.406 0.41-0.695 0.41-1.258zm0.961 6.313c0-0.594-0.207-1.102-0.621-1.523s-0.926-0.633-1.535-0.633c-0.594 0-1.105 0.203-1.535 0.609s-0.645 0.922-0.645 1.547c0 0.609 0.215 1.117 0.645 1.523s0.941 0.609 1.535 0.609c0.609 0 1.121-0.203 1.535-0.617s0.621-0.921 0.621-1.515z" fill="#ddd"/>
<path d="m343.12 40.139c0 1.188-0.414 2.211-1.242 3.063s-1.836 1.273-3.023 1.273c-1.172 0-2.18-0.422-3.023-1.273s-1.266-1.875-1.266-3.063 0.418-2.203 1.254-3.055 1.848-1.281 3.035-1.281 2.195 0.43 3.023 1.281 1.242 1.867 1.242 3.055zm-2.758-0.594c0-0.547-0.191-1.039-0.574-1.484s-0.84-0.672-1.371-0.672c-0.516 0-0.961 0.227-1.336 0.672s-0.563 0.938-0.563 1.484 0.184 1.047 0.551 1.492 0.816 0.664 1.348 0.664c0.547 0 1.008-0.219 1.383-0.664s0.562-0.945 0.562-1.492z" fill="#ddd"/>
<path d="m25.664 39.127-0.023 1.262c-2.422 1.102-4.818 1.914-7.186 2.457-2.369 0.543-4.709 0.809-7.021 0.809-1.281 0-2.455-0.125-3.518-0.375s-2.016-0.618-2.859-1.102c-1.002-0.578-1.756-1.32-2.264-2.227s-0.762-1.965-0.762-3.172c0-2.117 1.066-4.008 3.197-5.676s5.313-3.105 9.545-4.324c-0.344-1-0.926-1.766-1.748-2.281-0.82-0.52-1.863-0.781-3.131-0.781-1.359 0-2.594 0.281-3.705 0.836-1.109 0.555-2.096 1.367-2.955 2.445l-1.234-1.203c1.314-2.008 2.939-3.523 4.879-4.547 1.938-1.016 4.197-1.531 6.777-1.531 2.094 0 3.936 0.586 5.523 1.746 1.586 1.16 2.928 2.91 4.021 5.23 0.859 1.828 1.498 3.773 1.912 5.844s0.599 4.266 0.552 6.59zm-9.219-1.723c0-1.414-0.066-2.82-0.201-4.211-0.135-1.383-0.344-2.758-0.627-4.117-1.469 0.422-2.793 0.871-3.973 1.348-1.18 0.473-2.207 0.98-3.082 1.508l2.398 9.66c1.25 0 2.328-0.07 3.234-0.211s1.633-0.363 2.18-0.676c0.031-0.559 0.051-1.113 0.059-1.66s0.012-1.094 0.012-1.641zm5.586-6.422c0-0.563-0.137-0.984-0.41-1.266s-0.691-0.422-1.254-0.422-0.988 0.141-1.277 0.422-0.434 0.703-0.434 1.266 0.145 0.984 0.434 1.258 0.715 0.406 1.277 0.406 0.98-0.133 1.254-0.406 0.41-0.695 0.41-1.258zm0.961 6.313c0-0.594-0.207-1.102-0.621-1.523s-0.926-0.633-1.535-0.633c-0.594 0-1.105 0.203-1.535 0.609s-0.645 0.922-0.645 1.547c0 0.609 0.215 1.117 0.645 1.523s0.941 0.609 1.535 0.609c0.609 0 1.121-0.203 1.535-0.617s0.621-0.921 0.621-1.515z" fill="#f90"/>
<path d="m54.656 30.85c0 1.469-0.215 2.82-0.645 4.055s-1.066 2.359-1.91 3.375c-0.904 1.094-1.939 1.914-3.104 2.461-1.162 0.547-2.463 0.82-3.9 0.82-1.188 0-2.266-0.141-3.232-0.43-0.969-0.289-1.82-0.734-2.553-1.328-0.781-0.625-1.367-1.391-1.758-2.297s-0.586-1.953-0.586-3.141c0-2.109 0.568-3.836 1.707-5.172s2.76-2.008 4.865-2.008c1.311 0 2.4 0.422 3.273 1.258s1.311 1.922 1.311 3.25c0 0.5-0.063 0.953-0.188 1.359s-0.305 0.789-0.537 1.148c-0.264 0.391-0.588 0.68-0.971 0.867-0.381 0.188-0.813 0.281-1.297 0.281-0.328 0-0.652-0.047-0.973-0.148s-0.629-0.25-0.926-0.438c0.609-0.047 1.129-0.297 1.559-0.75s0.645-0.984 0.645-1.594c0-0.719-0.184-1.266-0.549-1.625-0.367-0.363-0.916-0.547-1.646-0.547-0.484 0-0.916 0.117-1.299 0.352-0.381 0.238-0.713 0.59-0.992 1.059-0.219 0.379-0.389 0.793-0.514 1.254-0.125 0.465-0.188 0.945-0.188 1.445 0 1.316 0.441 2.406 1.324 3.277 0.881 0.871 1.979 1.301 3.289 1.301 0.859 0 1.633-0.188 2.318-0.563 0.688-0.375 1.279-0.938 1.779-1.688 0.453-0.672 0.797-1.398 1.031-2.18s0.352-1.625 0.352-2.531c0-2.125-0.637-3.836-1.908-5.141s-2.979-1.961-5.115-1.961c-1.297 0-2.432 0.266-3.406 0.797-0.977 0.531-1.809 1.32-2.494 2.367-0.578 0.871-1.01 1.883-1.299 3.027s-0.434 2.398-0.434 3.754c0 0.109 0.027 0.98 0.08 2.609 0.055 1.633 0.119 4.031 0.197 7.195l-2.527 0.375-0.047 1.43 2.619-0.117v1.75l-2.689 0.285 0.117 1.723 2.572-0.352 0.068 1.563-2.758 0.469-0.047 1.68 2.805-0.492 0.047 1.859-8.094 2.078 4.035-37.008 3.59 0.539 0.422 5.688c0.922-1.656 2.232-2.961 3.936-3.914 1.701-0.953 3.514-1.43 5.436-1.43 1.438 0 2.725 0.25 3.865 0.742s2.123 1.219 2.951 2.188c0.797 0.938 1.395 2 1.793 3.188s0.6 2.518 0.6 3.987z" fill="#f33"/>
<path d="m83.945 39.732c-0.391 0.395-0.742 0.742-1.055 1.051s-0.586 0.551-0.82 0.738l1.758 2.641-1.641 0.961-1.783-2.211c-0.625 0.379-1.289 0.695-1.992 0.953-0.703 0.262-1.455 0.438-2.252 0.531l-0.047 2.766-2.109-0.141 0.188-2.555c-0.719 0-1.484-0.07-2.297-0.219s-1.664-0.375-2.555-0.672l-1.314 2.813-2.109-1.148 1.43-2.621c-0.766-0.422-1.467-0.91-2.1-1.465s-1.191-1.18-1.676-1.883l-2.508 1.59-1.055-1.66 2.742-1.43c-0.359-0.75-0.641-1.52-0.844-2.309-0.203-0.785-0.336-1.598-0.398-2.426l-2.508 0.634-0.727-2.063 3.234-0.723c0.078-0.875 0.211-1.66 0.398-2.363s0.43-1.328 0.727-1.875l-2.273-1.359 1.078-1.781 2.227 1.547c0.391-0.484 0.816-0.922 1.277-1.313s0.949-0.734 1.465-1.031l-1.922-2.789 2.109-1.031 1.547 2.977c0.5-0.156 0.953-0.281 1.359-0.375s0.766-0.164 1.078-0.211l0.633-3.07 1.664 0.516-0.422 2.438c0.625 0 1.219 0.078 1.781 0.234s1.102 0.391 1.617 0.707l2.32-2.301 1.313 1.102-2.203 2.398c0.344 0.328 0.664 0.719 0.961 1.184s0.563 0.973 0.797 1.535l2.742-0.914 0.469 1.738-2.648 0.918c0.125 0.344 0.23 0.719 0.316 1.125s0.168 0.844 0.246 1.313l-10.906 1.891v0.258c0 1.141 0.121 2.211 0.363 3.219 0.242 1 0.613 1.957 1.113 2.859 0.594 1.078 1.307 1.883 2.135 2.422s1.76 0.805 2.791 0.805c1.063 0 2.18-0.281 3.354-0.844 1.172-0.566 2.416-1.43 3.729-2.594l1.203 1.513zm-9.593-11.468c-0.063-0.691-0.316-1.211-0.762-1.555-0.445-0.348-1.082-0.523-1.91-0.523-1.016 0-1.961 0.309-2.836 0.922-0.875 0.617-1.469 1.398-1.781 2.359l7.289-1.203z" fill="#f90"/>
<path d="m103.41 21.592-0.352 2.438-4.689 0.352-0.352 2.828 5.041 0.141-0.961 3.32-4.48-0.281-1.758 12.922-3.441 0.625-0.445-13.969-4.219-0.305 0.703-2.641 3.469 0.07-0.117-2.219-4.477 0.352-1.008-3.633h5.367l-0.234-8.154 8.625-1-1.268 9.154h4.596zm-6.961 2.047c0-0.516-0.121-0.898-0.363-1.148s-0.613-0.375-1.113-0.375c-0.516 0-0.898 0.125-1.148 0.375s-0.375 0.633-0.375 1.148c0 0.5 0.125 0.875 0.375 1.117s0.633 0.359 1.148 0.359c0.5 0 0.871-0.117 1.113-0.359s0.363-0.617 0.363-1.117zm0.852-5.782c0-0.641-0.16-1.117-0.48-1.438s-0.801-0.484-1.441-0.484-1.121 0.164-1.441 0.484-0.48 0.797-0.48 1.438c0 0.656 0.16 1.148 0.48 1.469s0.801 0.477 1.441 0.477 1.121-0.156 1.441-0.477 0.48-0.812 0.48-1.469z" fill="#f90"/>
<path d="m116.52 44.217-9.844-1.266 3.656-22.828h4.406l1.782 24.094zm0.813-29.733-0.586 1.428-2.039-1.055c-0.221 0.281-0.463 0.508-0.73 0.68-0.266 0.172-0.563 0.297-0.891 0.375l0.469 1.914-1.598 0.234-0.4-2c-0.25-0.047-0.498-0.133-0.74-0.266s-0.473-0.289-0.691-0.461l-1.551 1.43-1.078-1.242 1.805-1.311c-0.156-0.297-0.246-0.609-0.27-0.938s4e-3 -0.68 0.082-1.055l-2.086-1.313 0.773-1.266 1.924 1.313c0.188-0.234 0.402-0.434 0.646-0.598 0.242-0.164 0.52-0.293 0.834-0.387l-0.4-2.766h1.504l0.094 2.578c0.346 0.047 0.658 0.125 0.941 0.234 0.281 0.109 0.547 0.25 0.799 0.422l1.643-1.313 1.078 1.078-1.875 1.262c0.125 0.172 0.211 0.438 0.258 0.797s0.063 0.811 0.047 1.355l2.038 0.871zm-3.586 23.998c0-0.594-0.211-1.102-0.633-1.523s-0.938-0.633-1.547-0.633c-0.578 0-1.078 0.211-1.5 0.633s-0.633 0.93-0.633 1.523 0.211 1.102 0.633 1.516 0.922 0.617 1.5 0.617c0.609 0 1.125-0.203 1.547-0.617s0.633-0.922 0.633-1.516zm0.016-6.343c0-0.547-0.137-0.961-0.41-1.242s-0.691-0.422-1.254-0.422c-0.578 0-1.008 0.141-1.289 0.422s-0.422 0.695-0.422 1.242c0 0.563 0.141 0.984 0.422 1.266s0.711 0.422 1.289 0.422c0.563 0 0.98-0.141 1.254-0.422s0.41-0.704 0.41-1.266z" fill="#f90"/>
<path d="m137.75 21.592-0.352 2.438-4.689 0.352-0.352 2.828 5.041 0.141-0.961 3.32-4.48-0.281-1.758 12.922-3.441 0.625-0.445-13.969-4.219-0.305 0.703-2.641 3.469 0.07-0.117-2.219-4.477 0.352-1.008-3.633h5.367l-0.234-8.154 8.625-1-1.268 9.154h4.596zm-6.961 2.047c0-0.516-0.121-0.898-0.363-1.148s-0.613-0.375-1.113-0.375c-0.516 0-0.898 0.125-1.148 0.375s-0.375 0.633-0.375 1.148c0 0.5 0.125 0.875 0.375 1.117s0.633 0.359 1.148 0.359c0.5 0 0.871-0.117 1.113-0.359s0.363-0.617 0.363-1.117zm0.852-5.782c0-0.641-0.16-1.117-0.48-1.438s-0.801-0.484-1.441-0.484-1.121 0.164-1.441 0.484-0.48 0.797-0.48 1.438c0 0.656 0.16 1.148 0.48 1.469s0.801 0.477 1.441 0.477 1.121-0.156 1.441-0.477 0.48-0.812 0.48-1.469z" fill="#f90"/>
<path d="m166.45 40.639-9.016 1.609c0.125-4.777 0.211-8.039 0.258-9.781 0.047-1.738 0.07-2.828 0.07-3.266 0-1.453-0.234-2.539-0.703-3.266-0.467-0.727-1.176-1.094-2.129-1.094-0.889 0-1.82 0.406-2.795 1.211-0.975 0.801-1.992 2.008-3.053 3.617l-0.68 12.125-4.25 0.578-2.516-21.5 8.031-1.688-0.352 6.75c1.154-1.547 2.379-2.711 3.674-3.5s2.654-1.188 4.072-1.188c1.873 0 3.406 0.703 4.6 2.109s2.072 3.523 2.635 6.344l2.154 10.94zm-3.859-9.188c0-0.484-0.125-0.852-0.375-1.109s-0.625-0.391-1.125-0.391-0.879 0.133-1.137 0.391-0.387 0.625-0.387 1.109c0 0.516 0.129 0.906 0.387 1.164s0.637 0.383 1.137 0.383 0.875-0.125 1.125-0.383 0.375-0.648 0.375-1.164zm0.867 5.719c0-0.531-0.195-0.977-0.586-1.344s-0.844-0.555-1.359-0.555c-0.656 0-1.145 0.164-1.465 0.484s-0.48 0.789-0.48 1.414c0 0.641 0.16 1.125 0.48 1.445s0.809 0.477 1.465 0.477c0.516 0 0.969-0.18 1.359-0.547s0.586-0.827 0.586-1.374z" fill="#f90"/>
<path d="m179.85 44.217-9.844-1.266 3.656-22.828h4.406l1.782 24.094zm0.812-29.733-0.586 1.428-2.039-1.055c-0.221 0.281-0.463 0.508-0.73 0.68-0.266 0.172-0.563 0.297-0.891 0.375l0.469 1.914-1.598 0.234-0.4-2c-0.25-0.047-0.498-0.133-0.74-0.266s-0.473-0.289-0.691-0.461l-1.551 1.43-1.078-1.242 1.805-1.311c-0.156-0.297-0.246-0.609-0.27-0.938s4e-3 -0.68 0.082-1.055l-2.086-1.313 0.773-1.266 1.924 1.313c0.188-0.234 0.402-0.434 0.646-0.598 0.242-0.164 0.52-0.293 0.834-0.387l-0.4-2.766h1.504l0.094 2.578c0.346 0.047 0.658 0.125 0.941 0.234 0.281 0.109 0.547 0.25 0.799 0.422l1.643-1.313 1.078 1.078-1.875 1.262c0.125 0.172 0.211 0.438 0.258 0.797s0.063 0.811 0.047 1.355l2.038 0.871zm-3.586 23.998c0-0.594-0.211-1.102-0.633-1.523s-0.938-0.633-1.547-0.633c-0.578 0-1.078 0.211-1.5 0.633s-0.633 0.93-0.633 1.523 0.211 1.102 0.633 1.516 0.922 0.617 1.5 0.617c0.609 0 1.125-0.203 1.547-0.617s0.633-0.922 0.633-1.516zm0.016-6.343c0-0.547-0.137-0.961-0.41-1.242s-0.691-0.422-1.254-0.422c-0.578 0-1.008 0.141-1.289 0.422s-0.422 0.695-0.422 1.242c0 0.563 0.141 0.984 0.422 1.266s0.711 0.422 1.289 0.422c0.563 0 0.98-0.141 1.254-0.422s0.41-0.704 0.41-1.266z" fill="#f90"/>
<path d="m195.28 38.139c0 1.188-0.414 2.211-1.242 3.063s-1.836 1.273-3.023 1.273c-1.172 0-2.18-0.422-3.023-1.273s-1.266-1.875-1.266-3.063 0.418-2.203 1.254-3.055 1.848-1.281 3.035-1.281 2.195 0.43 3.023 1.281 1.242 1.867 1.242 3.055zm-2.758-0.594c0-0.547-0.191-1.039-0.574-1.484s-0.84-0.672-1.371-0.672c-0.516 0-0.961 0.227-1.336 0.672s-0.563 0.938-0.563 1.484 0.184 1.047 0.551 1.492 0.816 0.664 1.348 0.664c0.547 0 1.008-0.219 1.383-0.664s0.562-0.945 0.562-1.492z" fill="#f90"/>
<path d="m226.15 40.639-9.016 1.609c0.125-4.777 0.211-8.039 0.258-9.781 0.047-1.738 0.07-2.828 0.07-3.266 0-1.453-0.234-2.539-0.703-3.266-0.467-0.727-1.176-1.094-2.129-1.094-0.889 0-1.82 0.406-2.795 1.211-0.975 0.801-1.992 2.008-3.053 3.617l-0.68 12.125-4.25 0.578-2.516-21.5 8.031-1.688-0.352 6.75c1.154-1.547 2.379-2.711 3.674-3.5s2.654-1.188 4.072-1.188c1.873 0 3.406 0.703 4.6 2.109s2.072 3.523 2.635 6.344l2.154 10.94zm-3.859-9.188c0-0.484-0.125-0.852-0.375-1.109s-0.625-0.391-1.125-0.391-0.879 0.133-1.137 0.391-0.387 0.625-0.387 1.109c0 0.516 0.129 0.906 0.387 1.164s0.637 0.383 1.137 0.383 0.875-0.125 1.125-0.383 0.375-0.648 0.375-1.164zm0.867 5.719c0-0.531-0.195-0.977-0.586-1.344s-0.844-0.555-1.359-0.555c-0.656 0-1.145 0.164-1.465 0.484s-0.48 0.789-0.48 1.414c0 0.641 0.16 1.125 0.48 1.445s0.809 0.477 1.465 0.477c0.516 0 0.969-0.18 1.359-0.547s0.586-0.827 0.586-1.374z" fill="#f90"/>
<path d="m255.11 39.732c-0.391 0.395-0.742 0.742-1.055 1.051s-0.586 0.551-0.82 0.738l1.758 2.641-1.641 0.961-1.781-2.211c-0.625 0.379-1.289 0.695-1.992 0.953-0.703 0.262-1.457 0.438-2.254 0.531l-0.047 2.766-2.109-0.141 0.188-2.555c-0.719 0-1.484-0.07-2.297-0.219s-1.664-0.375-2.555-0.672l-1.316 2.813-2.109-1.148 1.43-2.621c-0.766-0.422-1.465-0.91-2.098-1.465s-1.191-1.18-1.676-1.883l-2.508 1.59-1.055-1.66 2.742-1.43c-0.359-0.75-0.641-1.52-0.844-2.309-0.203-0.785-0.336-1.598-0.398-2.426l-2.508 0.633-0.727-2.063 3.234-0.723c0.078-0.875 0.211-1.66 0.398-2.363s0.43-1.328 0.727-1.875l-2.273-1.359 1.078-1.781 2.227 1.547c0.391-0.484 0.816-0.922 1.277-1.313s0.949-0.734 1.465-1.031l-1.922-2.789 2.109-1.031 1.547 2.977c0.5-0.156 0.953-0.281 1.359-0.375s0.766-0.164 1.078-0.211l0.633-3.07 1.664 0.516-0.422 2.438c0.625 0 1.219 0.078 1.781 0.234s1.102 0.391 1.617 0.707l2.32-2.301 1.313 1.102-2.203 2.398c0.344 0.328 0.664 0.719 0.961 1.184s0.563 0.973 0.797 1.535l2.742-0.914 0.469 1.738-2.648 0.918c0.125 0.344 0.23 0.719 0.316 1.125s0.168 0.844 0.246 1.313l-10.906 1.891v0.258c0 1.141 0.121 2.211 0.363 3.219 0.242 1 0.613 1.957 1.113 2.859 0.594 1.078 1.305 1.883 2.133 2.422s1.762 0.805 2.793 0.805c1.063 0 2.18-0.281 3.355-0.844 1.172-0.566 2.414-1.43 3.727-2.594l1.204 1.514zm-9.593-11.468c-0.063-0.691-0.316-1.211-0.762-1.555-0.445-0.348-1.082-0.523-1.91-0.523-1.016 0-1.961 0.309-2.836 0.922-0.875 0.617-1.469 1.398-1.781 2.359l7.289-1.203z" fill="#f90"/>
<path d="m285.44 30.389c0 1.891-0.328 3.586-0.984 5.086s-1.656 2.805-3 3.914c-1.262 1.047-2.684 1.836-4.262 2.359-1.574 0.523-3.332 0.781-5.27 0.781-2.031 0-3.867-0.398-5.516-1.195s-3.098-2-4.344-3.609c-1.141-1.457-1.988-3.086-2.543-4.883s-0.832-3.762-0.832-5.891c0-2.797 0.441-5.516 1.32-8.164 0.883-2.648 2.199-5.232 3.949-7.748 1.637-2.344 3.527-4.434 5.668-6.27 2.137-1.836 4.516-3.426 7.141-4.77l4.141 7.359c-2.512 1.031-4.797 2.264-6.859 3.695-2.059 1.43-3.898 3.061-5.523 4.889-1.871 2.109-3.277 4.313-4.211 6.602-0.938 2.293-1.406 4.664-1.406 7.117 0 1.238 0.188 2.398 0.563 3.484s0.93 2.094 1.664 3.016c0.793 1.016 1.688 1.773 2.68 2.273s2.094 0.75 3.313 0.75c2.57 0 4.617-0.813 6.148-2.438 1.523-1.633 2.289-3.75 2.289-6.367 0-0.938-0.121-1.805-0.363-2.594s-0.621-1.531-1.137-2.219c-0.543-0.719-1.184-1.262-1.918-1.625-0.73-0.359-1.559-0.539-2.48-0.539-1.324 0-2.414 0.391-3.266 1.164-0.848 0.77-1.273 1.805-1.273 3.102 0 0.918 0.195 1.605 0.586 2.055 0.391 0.453 0.973 0.68 1.754 0.68 0.512 0 0.949-0.203 1.309-0.609s0.539-0.883 0.539-1.43c0-0.219-0.027-0.414-0.082-0.594s-0.152-0.352-0.293-0.508c0.813 0.234 1.43 0.633 1.844 1.188 0.418 0.555 0.625 1.266 0.625 2.141 0 0.523-0.109 1-0.328 1.438s-0.551 0.836-0.988 1.18c-0.41 0.313-0.844 0.543-1.309 0.695-0.461 0.148-0.969 0.219-1.516 0.219-0.781 0-1.492-0.148-2.133-0.453s-1.211-0.773-1.711-1.398c-0.469-0.578-0.813-1.211-1.031-1.906s-0.328-1.453-0.328-2.266c0-1.297 0.227-2.469 0.68-3.516s1.125-1.984 2.016-2.813c0.863-0.797 1.844-1.391 2.945-1.781s2.297-0.586 3.578-0.586c1.516 0 2.891 0.273 4.117 0.824 1.227 0.547 2.316 1.371 3.273 2.465 0.922 1.063 1.613 2.234 2.074 3.508s0.69 2.672 0.69 4.188z" fill="#093"/>
<path d="m304.48 21.592-0.352 2.438-4.688 0.352-0.352 2.828 5.039 0.141-0.961 3.32-4.48-0.281-1.758 12.922-3.441 0.625-0.445-13.969-4.219-0.305 0.703-2.641 3.469 0.07-0.117-2.219-4.477 0.352-1.008-3.633h5.367l-0.234-8.154 8.625-1-1.266 9.154h4.595zm-6.961 2.047c0-0.516-0.121-0.898-0.363-1.148s-0.613-0.375-1.113-0.375c-0.516 0-0.898 0.125-1.148 0.375s-0.375 0.633-0.375 1.148c0 0.5 0.125 0.875 0.375 1.117s0.633 0.359 1.148 0.359c0.5 0 0.871-0.117 1.113-0.359s0.363-0.617 0.363-1.117zm0.852-5.782c0-0.641-0.16-1.117-0.48-1.438s-0.801-0.484-1.441-0.484-1.121 0.164-1.441 0.484-0.48 0.797-0.48 1.438c0 0.656 0.16 1.148 0.48 1.469s0.801 0.477 1.441 0.477 1.121-0.156 1.441-0.477 0.48-0.812 0.48-1.469z" fill="#f90"/>
<path d="m331.12 39.127-0.023 1.262c-2.422 1.102-4.82 1.914-7.188 2.457s-4.707 0.809-7.02 0.809c-1.281 0-2.457-0.125-3.52-0.375s-2.016-0.617-2.859-1.102c-1-0.578-1.754-1.32-2.262-2.227s-0.762-1.965-0.762-3.172c0-2.117 1.066-4.008 3.195-5.676 2.133-1.668 5.313-3.105 9.547-4.324-0.344-1-0.926-1.766-1.75-2.281-0.82-0.52-1.859-0.781-3.129-0.781-1.359 0-2.594 0.281-3.707 0.836-1.109 0.555-2.094 1.367-2.953 2.445l-1.234-1.203c1.313-2.008 2.938-3.523 4.879-4.547 1.938-1.016 4.199-1.531 6.777-1.531 2.094 0 3.938 0.586 5.523 1.746s2.93 2.91 4.023 5.23c0.859 1.828 1.496 3.773 1.91 5.844s0.6 4.266 0.553 6.59zm-9.219-1.723c0-1.414-0.066-2.82-0.203-4.211-0.133-1.383-0.344-2.758-0.625-4.117-1.469 0.422-2.793 0.871-3.973 1.348-1.18 0.473-2.207 0.98-3.082 1.508l2.398 9.66c1.25 0 2.328-0.07 3.234-0.211s1.633-0.363 2.18-0.676c0.031-0.559 0.051-1.113 0.059-1.66s0.012-1.094 0.012-1.641zm5.586-6.422c0-0.563-0.137-0.984-0.41-1.266s-0.691-0.422-1.254-0.422-0.988 0.141-1.277 0.422-0.434 0.703-0.434 1.266 0.145 0.984 0.434 1.258 0.715 0.406 1.277 0.406 0.98-0.133 1.254-0.406 0.41-0.695 0.41-1.258zm0.961 6.313c0-0.594-0.207-1.102-0.621-1.523s-0.926-0.633-1.535-0.633c-0.594 0-1.105 0.203-1.535 0.609s-0.645 0.922-0.645 1.547c0 0.609 0.215 1.117 0.645 1.523s0.941 0.609 1.535 0.609c0.609 0 1.121-0.203 1.535-0.617s0.621-0.921 0.621-1.515z" fill="#f90"/>
<path d="m345.12 38.139c0 1.188-0.414 2.211-1.242 3.063s-1.836 1.273-3.023 1.273c-1.172 0-2.18-0.422-3.023-1.273s-1.266-1.875-1.266-3.063 0.418-2.203 1.254-3.055 1.848-1.281 3.035-1.281 2.195 0.43 3.023 1.281 1.242 1.867 1.242 3.055zm-2.758-0.594c0-0.547-0.191-1.039-0.574-1.484s-0.84-0.672-1.371-0.672c-0.516 0-0.961 0.227-1.336 0.672s-0.563 0.938-0.563 1.484 0.184 1.047 0.551 1.492 0.816 0.664 1.348 0.664c0.547 0 1.008-0.219 1.383-0.664s0.562-0.945 0.562-1.492z" fill="#f90"/>
</svg>
